<svg xmlns="http://www.w3.org/2000/svg" viewBox="0 0 60 60"><path fill="#3B4652" d="M25.105 8.672C14.607 10.928 6.71 20.28 6.71 31.44c0 .53.02 1.05.06 1.56.03.39.28.72.64.86.37.13.78.05 1.06-.22 3.002-2.97 7.525-3.51 11.101-1.641-.001-.187-.007-.368-.007-.555 0-8.946 1.765-18.385 5.54-22.772zm9.79 0c3.776 4.387 5.54 13.826 5.54 22.772 0 .185-.004.364-.006.547 3.561-1.87 8.089-1.33 11.101 1.649.28.27.69.36 1.06.22.36-.14.62-.47.64-.86.04-.51.06-1.03.06-1.56 0-11.16-7.897-20.512-18.395-22.768z"/><path fill="#2B79C2" d="M38.44 31.44c0 .51-.01 1.02-.02 1.51l-2-.05H31v16.38c0 2.6-2.12 4.72-4.72 4.72-2.6 0-4.72-2.12-4.72-4.72v-1.53c0-.55.45-1 1-1 .56 0 1 .45 1 1v1.53c0 1.5 1.22 2.72 2.72 2.72S29 50.78 29 49.28V32.9h-5.42l-2 .05c-.01-.49-.02-1-.02-1.51 0-10.58 2.6-21.78 7.44-23.15V7c0-.55.45-1 1-1s1 .45 1 1v1.29c4.84 1.37 7.44 12.57 7.44 23.15z"/></svg>